<svg width="62" height="32" viewBox="0 0 62 32" fill="none" xmlns="http://www.w3.org/2000/svg">
<g clip-path="url(#clip0_243_543)">
<path d="M61.7484 6.49463C62.0773 7.9654 61.5839 9.47788 61.2271 10.8861C61.0758 10.2341 61.3307 9.60486 61.4425 8.97561C61.5921 8.23264 61.5872 7.45935 61.6859 6.71638L61.7484 6.49463Z" fill="#2F1715"/>
<path d="M60.6381 5.70975C61.0838 5.74007 61.4127 6.10587 61.712 6.44703L61.6857 6.71617C61.587 7.4743 61.592 8.23243 61.4423 8.9754C61.3305 9.60465 61.0756 10.2339 61.2269 10.8859C60.2105 14.5192 58.2864 17.9612 55.4413 20.0176C53.4235 21.421 51.1043 22.1433 48.7478 22.1024C49.0307 22.0209 49.3169 21.9413 49.5981 21.8485C53.0642 20.5434 56.0913 18.0259 58.2584 14.6462C57.2371 15.863 56.2027 17.0817 54.9693 18.0313C53.5086 19.2001 51.8998 20.1016 50.2 20.7037L50.2263 20.4535L50.5371 20.2488C49.9451 19.6177 49.2856 19.0472 48.8465 18.2511C48.6212 18.1848 48.3975 18.1204 48.1706 18.0616C49.4113 17.4596 50.531 16.5692 51.4597 15.4461C50.4204 16.2686 49.3514 17.059 48.1788 17.6105C48.0686 17.3982 47.9568 17.1879 47.8499 16.9775C47.5622 17.0813 47.2832 17.2145 47.0161 17.3755C46.8721 17.6246 46.7519 17.8908 46.6576 18.1696C45.7613 18.435 44.8338 18.3724 43.9194 18.3971C45.1791 18.6814 46.5129 18.7382 47.7414 18.2511L47.5473 18.7477C48.0433 19.3782 48.5858 19.9578 49.1689 20.48L49.1541 20.8155L49.1541 20.9482L49.1458 21.1169C48.8432 21.1674 48.5417 21.2224 48.2413 21.2818C47.6279 21.0543 46.9865 21.1112 46.3665 21.2552C44.3535 20.952 42.3702 19.5589 41.4459 17.4343C41.7024 17.437 41.9581 17.4693 42.209 17.5309C43.0903 17.62 43.9766 17.6238 44.8584 17.5423C47.345 17.131 49.7971 15.9938 51.667 14.0189C52.7886 12.8172 53.8197 11.5076 54.8591 10.2112C55.3409 10.7058 55.7768 11.2536 56.2241 11.79C56.5842 12.2619 57.1615 12.3207 57.5957 12.6599C57.8654 12.8703 57.8917 13.2721 57.9871 13.6076C58.2732 13.9355 58.5495 14.2747 58.8094 14.6292C59.033 14.3149 59.2801 14.0238 59.5478 13.7592C58.2436 12.5348 57.3276 10.8177 55.9297 9.72216L55.7192 9.28244C56.7059 8.21916 57.8571 7.38711 58.9886 6.53422C59.4869 6.15515 59.9984 5.63015 60.6381 5.70975Z" fill="#482112"/>
<path d="M34.5138 18.8366C35.5282 20.8056 36.1621 23.0036 36.3722 25.2807C36.4577 26.1184 35.8048 26.7477 35.1437 26.8804C34.8089 26.7657 34.4891 26.5993 34.1931 26.3857C33.2064 25.6275 32.1933 24.9149 31.2839 24.0374C29.7396 22.4718 28.4618 20.5936 26.9175 19.028C25.7236 17.8908 24.2714 17.1478 22.7929 16.638C21.3144 16.1282 19.734 16.1395 18.2078 16.3329C18.4167 15.3985 19.1255 14.754 19.7554 14.1779C21.5036 12.6616 23.8981 12.5232 25.911 13.3686C28.6295 14.3162 31.0602 16.1945 32.9597 18.6148C33.1222 18.8035 33.2929 18.9825 33.4711 19.1512C33.8027 18.9855 34.1543 18.8794 34.5138 18.8366ZM20.3014 15.5254C20.9954 15.9784 21.8407 15.7301 22.6038 15.7756L22.4393 15.6183C24.0954 15.9595 25.6002 16.945 26.9669 18.0311C25.3173 15.9936 22.7222 14.6233 20.3014 15.5273L20.3014 15.5254Z" fill="#482112"/>
<path d="M59.5529 13.7514C59.2852 14.016 59.0381 14.3071 58.8145 14.6214C58.553 14.267 58.2767 13.9277 57.9922 13.5998C57.8968 13.2719 57.8705 12.8701 57.6008 12.6521C57.1666 12.3129 56.5894 12.2541 56.2292 11.7822C55.7819 11.2458 55.3461 10.6981 54.8642 10.2034C55.1455 9.88876 55.4316 9.57603 55.7178 9.26709L55.9283 9.70681C57.3327 10.8099 58.2455 12.5271 59.5529 13.7514Z" fill="#573123"/>
<path d="M14.2807 12.5045C14.0702 12.8229 13.8646 13.1451 13.6591 13.4673L13.3482 13.2133L13.5127 12.8949C13.3069 12.8383 13.1197 12.7146 12.9733 12.5386C13.1377 12.2979 13.3022 12.0667 13.4568 11.8278C13.2298 12.0629 13.0127 12.3093 12.7989 12.5594C12.2711 11.9589 11.7715 11.3262 11.3024 10.6641C11.1514 10.4347 11.0397 10.1742 10.9735 9.8965C10.7597 9.80173 10.5459 9.70697 10.3304 9.61978C10.5563 9.38097 10.7756 9.1371 10.9883 8.88818C11.656 9.5307 12.3516 10.1448 12.9173 10.9105C13.3346 11.4824 13.7905 12.0154 14.2807 12.5045Z" fill="#573123"/>
<path d="M59.3962 3.25902C59.4143 3.66651 59.3962 4.11381 59.0476 4.33746C57.5494 5.52773 56.5034 7.26953 55.3654 8.86919L55.3407 8.85403L54.8473 8.54319C54.6483 8.79338 54.4477 9.03977 54.2471 9.28806L54.627 9.81496C52.1731 12.7241 48.9606 14.6279 45.4798 15.2356C45.0407 15.1219 44.3566 14.7788 44.0754 15.3777L44.0063 15.4839C43.9602 15.4706 43.8665 15.446 43.8205 15.4327C43.0524 15.1469 42.225 15.1536 41.4605 15.4517L41.3733 15.4801C41.1135 15.3626 40.755 15.3512 40.6283 15.012C40.454 14.6746 40.5428 14.2652 40.5543 13.8975C40.8832 10.0898 42.9603 6.77675 45.4486 4.37536C47.5224 2.48004 50.0369 0.859529 52.7554 0.886063C50.0123 2.62029 47.3283 4.66156 45.3219 7.47423C44.8574 8.11362 44.4701 8.8226 44.1707 9.58183C46.1722 6.20057 49.1834 3.84467 52.3311 2.06686C54.5891 0.755288 57.6398 1.09266 59.3962 3.25902ZM54.6812 7.86087C52.6785 9.97738 50.4847 11.8404 48.1375 13.418C50.0945 12.6598 51.8114 11.2649 53.3014 9.65006C53.8047 9.09094 54.3161 8.5394 54.6895 7.86087L54.6812 7.86087Z" fill="#482111"/>
<path d="M54.8594 8.54346L55.3528 8.85429C55.1368 9.19925 54.894 9.52088 54.6275 9.81522L54.2575 9.28832C54.4631 9.04003 54.6604 8.79175 54.8594 8.54346Z" fill="#58372B"/>
<path d="M54.6894 7.86084C54.3161 8.53937 53.8046 9.09091 53.3096 9.65003C51.8196 11.2649 50.1027 12.6674 48.1456 13.4179C50.4929 11.8404 52.6867 9.97735 54.6894 7.86084Z" fill="#F8E7E3"/>
<path d="M51.463 15.4478C50.5342 16.5709 49.4145 17.4613 48.1738 18.0633C48.0291 18.1296 47.8827 18.1941 47.7331 18.2528C46.5046 18.7399 45.1708 18.6831 43.9111 18.3988C44.8254 18.3741 45.753 18.4367 46.6493 18.1713C47.17 18.0318 47.6804 17.8449 48.1754 17.6122C49.3546 17.0607 50.4236 16.2703 51.463 15.4478Z" fill="#F8E7E3"/>
<path d="M20.3016 15.5275C22.7158 14.6234 25.3175 15.988 26.9687 18.0331C25.602 16.9395 24.0973 15.9615 22.4412 15.6203C21.7356 15.4725 21.0153 15.5294 20.3016 15.5275Z" fill="#F8E7E3"/>
<path d="M10.8403 6.50195C9.92377 7.81881 8.80495 8.93025 7.53967 9.78087C7.00682 10.1391 6.45918 10.4935 5.84904 10.647C7.64167 9.48408 9.31584 8.09374 10.8403 6.50195Z" fill="#F8E7E3"/>
<path d="M8.3006 12.4038C7.07539 13.6471 5.59198 14.7464 3.89478 14.6953C3.43594 14.591 2.96724 14.5588 2.51169 14.4337C3.27148 14.4204 4.0395 14.4792 4.78943 14.3067C6.07384 13.9845 7.16913 13.1259 8.3006 12.4038Z" fill="#F8E7E3"/>
<path d="M48.8562 18.2549C49.2953 19.0509 49.9548 19.6214 50.5468 20.2526L50.236 20.4573L50.2097 20.7075L50.2097 20.7435C49.9959 20.806 49.7821 20.8705 49.5683 20.933C49.4778 20.734 49.3413 20.6942 49.1555 20.8174L49.1703 20.4819C48.5873 19.9597 48.0447 19.3801 47.5488 18.7496L47.7428 18.253C47.8925 18.1943 48.0388 18.1298 48.1836 18.0635C48.4072 18.1241 48.6309 18.1886 48.8562 18.2549Z" fill="#553121"/>
<path d="M49.1519 20.8176C49.3377 20.6944 49.4808 20.7342 49.5647 20.9332C49.4594 20.9332 49.2506 20.9465 49.147 20.9503L49.1519 20.8176Z" fill="#1E0902"/>
<path d="M48.1824 17.6125C47.6873 17.8452 47.177 18.0321 46.6562 18.1716C46.7506 17.8928 46.8708 17.6266 47.0147 17.3775C47.2818 17.2165 47.5609 17.0833 47.8485 16.9795C47.9604 17.1899 48.0722 17.4003 48.1824 17.6125Z" fill="#54342B"/>
<path d="M46.3597 21.2571C46.9797 21.1131 47.6211 21.0562 48.2345 21.2837C47.6121 21.3867 46.9797 21.3778 46.3597 21.2571Z" fill="#241006"/>
<path d="M44.0754 15.374C44.3566 14.7751 45.0408 15.1182 45.4799 15.2319C45.0147 15.3125 44.5456 15.3599 44.0754 15.374Z" fill="#240C03"/>
<path d="M41.461 15.4478C42.2255 15.1497 43.0529 15.143 43.8209 15.4288C43.0357 15.4996 42.247 15.5059 41.461 15.4478Z" fill="#1D0802"/>
<path d="M28.9718 13.0825C31.3795 14.0852 33.2576 16.3236 34.5124 18.8387C34.1509 18.8789 33.797 18.9831 33.4631 19.1476C33.2849 18.9789 33.1142 18.7998 32.9517 18.6112C31.0261 15.6203 28.3158 13.4238 25.2222 12.3472L25.0857 12.1387C26.4096 12.2429 27.74 12.4874 28.9718 13.0825Z" fill="#502F24"/>
<path d="M33.7031 27.8887C33.9522 28.0864 34.1431 28.3667 34.2508 28.6923C33.9679 29.5225 33.218 29.9091 32.5585 30.2503C31.8082 30.6061 31.0007 30.7732 30.1898 30.7405C29.379 30.7078 28.5836 30.4761 27.8567 30.0608C25.0198 28.4422 22.2569 26.3364 20.5219 23.2073C20.984 24.5131 21.8112 25.5878 22.65 26.5923C24.335 28.3739 26.2147 29.8942 28.2415 31.1146C25.5839 31.1146 23.1663 29.4637 21.2126 27.5134C19.027 25.239 17.2821 22.0682 17.3117 18.5732C17.4153 18.4424 17.5255 18.3173 17.6406 18.1941C18.7819 17.8795 19.943 18.1221 21.0942 18.1714C21.7958 18.2676 22.4924 18.4068 23.1812 18.5883L23.2075 18.6509C23.3308 19.2896 23.89 19.4337 24.3587 19.6137L24.2156 19.8923C24.2041 19.9151 24.1811 19.9568 24.1712 19.9795C26.2926 21.3601 28.2598 23.0341 30.0292 24.9642C29.8844 24.7519 29.7359 24.5435 29.5835 24.3388L30.4272 23.7834C31.4764 25.1974 32.3645 26.8084 33.7031 27.8887ZM21.7833 21.0409C21.5811 21.1159 21.4061 21.2658 21.2856 21.4674C21.1651 21.669 21.1059 21.9109 21.1172 22.1554C21.3228 22.1554 21.5284 22.1345 21.7323 22.108L21.6681 22.8964L22.1171 22.885C22.446 23.9749 23.219 24.7557 23.9886 25.4324C24.4662 25.6384 24.9167 25.9197 25.3273 26.2682L24.9984 26.7875C25.4013 27.1154 25.8519 27.413 26.0871 27.9361C26.2476 27.5626 26.5147 27.2641 26.8436 27.0908C25.273 24.9491 23.339 23.1959 21.7833 21.0409Z" fill="#482212"/>
<path d="M23.2152 18.6606C26.011 19.4472 28.5272 21.3255 30.4299 23.7932L29.5863 24.3485C28.1151 22.4134 26.2788 20.8924 24.2184 19.9021L24.3614 19.6235C23.8927 19.4434 23.3336 19.2994 23.2152 18.6606Z" fill="#44261E"/>
<path d="M21.7832 21.041C23.339 23.2017 25.273 24.9492 26.8502 27.0909C26.5213 27.2643 26.2542 27.5627 26.0937 27.9362C25.8585 27.4131 25.4079 27.1155 25.0049 26.7877L25.3339 26.2683C24.9233 25.9198 24.4727 25.6385 23.9952 25.4325C23.2255 24.7559 22.446 23.975 22.1236 22.8852L21.6747 22.8965L21.7388 22.1081C21.5349 22.1346 21.3293 22.1498 21.1237 22.1555C21.112 21.912 21.1703 21.6708 21.2895 21.4694C21.4087 21.2679 21.5823 21.1173 21.7832 21.041Z" fill="#573122"/>
<path d="M22.441 15.6145L22.6055 15.7718C21.844 15.7263 20.9987 15.9746 20.3031 15.5216C21.0152 15.5292 21.7355 15.4724 22.441 15.6145Z" fill="#250802"/>
<path d="M16.1162 5.31905C16.4221 5.77204 16.2806 6.37096 16.2576 6.89408L16.1918 6.93956L15.9616 7.12909C15.705 7.90997 15.5883 8.74202 15.3909 9.54564C15.4978 9.41676 15.6014 9.28598 15.7034 9.15331C15.3959 10.3512 14.8581 11.4561 14.2808 12.5042C13.7896 12.0165 13.3327 11.4848 12.9142 10.9141C12.3485 10.1559 11.6528 9.53427 10.9851 8.89175C10.7658 9.14446 10.5466 9.38833 10.3273 9.62335C10.5427 9.71432 10.7565 9.81288 10.9703 9.90007C11.0366 10.1777 11.1482 10.4383 11.2992 10.6677C11.7684 11.3298 12.2679 11.9625 12.7958 12.563C11.0558 14.6156 8.75341 15.9746 6.34246 16.6436C4.20451 17.2464 1.71627 16.075 0.693344 13.7817C1.92513 13.8897 3.18981 13.9902 4.39693 13.6206C5.07629 13.4195 5.74019 13.1546 6.38194 12.8283C7.7124 12.1252 8.83071 10.9975 9.77963 9.73138C11.2797 7.64684 13.1396 5.94477 15.2413 4.7334C15.5455 4.88313 15.9386 4.94757 16.1162 5.31905ZM8.30115 12.4038C7.16969 13.1259 6.0744 13.9845 4.78998 14.2991C4.20451 13.8613 3.41018 14.1096 2.74742 14.1285L2.51224 14.4261C2.96779 14.5512 3.4365 14.5834 3.89533 14.6877C5.59254 14.7464 7.07595 13.6471 8.30115 12.4038Z" fill="#482214"/>
<path d="M16.1919 6.93994C16.1185 7.7009 15.9524 8.44614 15.6985 9.15369C15.5966 9.28636 15.493 9.41714 15.3861 9.54602C15.5834 8.7424 15.7002 7.91035 15.9567 7.12947L16.1919 6.93994Z" fill="#301911"/>
<path d="M13.8946 2.37008C14.0541 2.47753 14.1919 2.62311 14.2985 2.79703C14.4052 2.97096 14.4783 3.16919 14.5129 3.37839C14.2703 3.66389 14.0086 3.92689 13.7301 4.16495C12.8569 4.94393 12.222 6.00152 11.5297 6.97762C10.6367 8.16599 9.6598 9.30319 8.47241 10.0992C7.01696 11.0791 5.43488 11.877 3.75084 12.131C2.63252 12.3604 1.49283 12.294 0.363002 12.2751C-0.225755 11.8467 0.0702758 10.9483 0.103167 10.2925C0.59654 7.63909 2.08981 5.34385 3.89555 3.6589C5.46613 2.24688 7.34917 1.15707 9.36706 1.07178C8.07114 1.94552 6.78343 2.8496 5.62072 3.95078C4.46952 5.00837 3.37752 6.2555 2.76574 7.82862C4.26559 5.17516 6.64035 3.38218 9.07104 2.01376C9.83312 1.58728 10.6782 1.39592 11.5236 1.45837C12.3691 1.52083 13.186 1.83496 13.8946 2.37008ZM10.8406 6.50189C9.31611 8.09368 7.64194 9.48402 5.84931 10.647C6.45945 10.4935 7.00052 10.139 7.53994 9.78081C8.80522 8.93019 9.92404 7.81875 10.8406 6.50189Z" fill="#472313"/>
<path d="M13.5125 12.8949L13.348 13.2133L13.6621 13.4673C12.7596 14.7308 11.6177 15.739 10.3242 16.4142C9.03067 17.0894 7.61999 17.4137 6.20067 17.3622C8.86981 16.7424 11.1508 14.7997 12.973 12.5386C13.1194 12.7146 13.3067 12.8383 13.5125 12.8949Z" fill="#45271A"/>
<path d="M2.74753 14.1363C3.40536 14.125 4.20463 13.8691 4.7901 14.3069C4.04017 14.4794 3.27216 14.4206 2.51236 14.4339L2.74753 14.1363Z" fill="#2A1008"/>
</g>
<defs>
<clipPath id="clip0_243_543">
<rect width="30.2288" height="61.8567" fill="white" transform="translate(61.8565 0.885742) rotate(90)"/>
</clipPath>
</defs>
</svg>
