<svg width="66" height="67" viewBox="0 0 66 67" fill="none" xmlns="http://www.w3.org/2000/svg">
<g clip-path="url(#clip0_196_164)">
<path d="M33 5.86914C48.1635 5.86914 60.5 18.2056 60.5 33.3691C60.5 48.5326 48.1635 60.8691 33 60.8691C17.8365 60.8691 5.5 48.5326 5.5 33.3691C5.5 18.2056 17.8365 5.86914 33 5.86914ZM33 0.369141C14.7758 0.369141 0 15.1449 0 33.3691C0 51.5934 14.7758 66.3691 33 66.3691C51.2243 66.3691 66 51.5934 66 33.3691C66 15.1449 51.2243 0.369141 33 0.369141ZM37.422 26.4281L33 11.3691L28.5697 26.4309C27.39 27.1871 26.4385 28.2404 25.7675 29.4751L11 33.3691L25.7675 37.2631C26.4357 38.4979 27.3872 39.5539 28.5697 40.3074L33 55.3691L37.4495 40.3019C38.6265 39.5456 39.5698 38.4896 40.238 37.2521L55 33.3691L40.238 29.4834C39.567 28.2404 38.61 27.1844 37.422 26.4281ZM33 37.4941C30.723 37.4941 28.875 35.6461 28.875 33.3691C28.875 31.0921 30.723 29.2441 33 29.2441C35.277 29.2441 37.125 31.0921 37.125 33.3691C37.125 35.6461 35.277 37.4941 33 37.4941ZM47.4375 47.8066L40.3618 43.2994C41.3408 42.5734 42.2043 41.7071 42.933 40.7309L47.4375 47.8066ZM40.1748 23.3014L47.4348 18.9344L43.0677 26.1916C42.2703 25.0724 41.294 24.0989 40.1748 23.3014ZM25.8335 43.4451L18.5625 47.8066L22.9322 40.5439C23.7297 41.6659 24.7087 42.6449 25.8335 43.4451ZM23.0697 26.0101L18.5653 18.9344L25.641 23.4389C24.6593 24.1649 23.793 25.0311 23.0697 26.0101Z" fill="#E19517"/>
</g>
<defs>
<clipPath id="clip0_196_164">
<rect width="66" height="66" fill="white" transform="translate(0 0.369141)"/>
</clipPath>
</defs>
</svg>
