<svg width="86" height="100" viewBox="0 0 86 100" fill="none" xmlns="http://www.w3.org/2000/svg">
<g clip-path="url(#clip0_243_496)">
<path d="M38.4357 -1.90735e-05C42.439 1.43211 46.2475 4.06387 48.229 7.93569C49.9821 11.3054 49.7739 15.376 48.5111 18.8603C46.9964 22.9883 44.2962 26.513 42.2475 30.3713L39.8664 30.3477C42.13 25.3605 45.5086 20.8283 46.8318 15.4367C47.5753 12.7015 47.2623 9.78546 45.9553 7.27185C44.3029 4.09757 41.3139 1.95779 38.4357 -1.90735e-05Z" fill="white"/>
<path d="M36.1284 3.37642C39.4264 4.62322 42.2912 7.47737 42.8454 11.0695C43.4129 13.6945 42.5297 16.3566 41.2669 18.6379C39.151 22.5064 36.3131 26.0513 35.1847 30.4084C34.56 30.4084 33.9387 30.4084 33.3207 30.4387L33.267 30.2534C33.0789 29.6973 33.3711 29.1245 33.4719 28.5685C34.7279 23.9419 37.9957 20.2756 39.9839 15.9859C41.0217 13.7855 41.5221 11.1639 40.6053 8.832C39.7791 6.5507 37.8446 4.99052 36.1284 3.37642Z" fill="white"/>
<path d="M33.0953 34.0612C33.6158 34.0612 34.1398 34.0612 34.6637 34.0612C34.8954 36.2245 35.3589 38.3879 36.4134 40.3086C37.1859 41.9295 38.3781 43.2841 39.3588 44.7701C37.6182 43.5323 36.1596 41.9374 35.0798 40.0912C33.9999 38.245 33.3235 36.1895 33.0953 34.0612Z" fill="white"/>
<path d="M38.6879 34.0847C39.4066 34.0645 40.1287 34.0611 40.8508 34.0611C40.0347 37.3668 40.6358 40.8377 42.1438 43.8333C40.9562 42.5169 40.0395 40.978 39.4464 39.305C38.8534 37.632 38.5956 35.858 38.6879 34.0847Z" fill="white"/>
<path d="M62.7137 35.4933C63.8313 35.1954 64.983 35.0459 66.1394 35.0485C70.0049 34.9811 73.9881 36.4671 76.6144 39.3617C78.7739 41.7205 79.815 44.9487 79.9729 48.123C80.0668 50.1887 79.6728 52.2475 78.823 54.1313C77.9732 56.0152 76.6917 57.6709 75.0829 58.9634C71.6338 61.8041 66.9823 62.7881 62.6062 62.468C57.4006 62.0771 52.551 59.9912 47.651 58.3569C39.809 55.6341 31.7453 53.1271 23.3861 52.8406C18.916 52.7497 14.3585 53.3832 10.2478 55.2163C6.69525 56.8104 3.55075 59.1946 1.05227 62.1883C0.195863 63.1992 -0.519491 64.3483 -1.40948 65.3423C1.52076 59.4772 6.46812 54.8748 12.5181 52.3857C19.2048 49.6158 26.7277 49.6899 33.7234 51.1221C42.1532 52.8238 49.9717 56.5608 58.1697 59.0409C58.6466 59.1757 59.1235 59.3105 59.6038 59.4352C62.8514 60.2473 66.3207 60.7831 69.6053 59.8766C72.9134 58.896 75.9562 56.5271 77.1854 53.2181C79.2575 47.7658 76.3424 40.8983 70.9017 38.7518C69.2795 38.0577 67.4827 38.0105 65.7531 38.1486C64.4067 38.287 63.1264 38.8032 62.0588 39.6381C58.425 42.0474 57.9816 47.6546 60.6886 50.9367C61.2838 51.5121 61.9564 52.0009 62.6868 52.3891L62.838 52.4498C64.8329 53.1709 67.1838 53.2282 69.0847 52.197C70.7337 51.267 71.486 49.2586 71.3954 47.439C71.3181 46.0911 70.6296 44.9083 70.0217 43.7323C72.5809 46.0237 73.0007 50.2763 70.858 52.9754C68.5843 55.5432 64.6247 56.0655 61.5416 54.8018C60.9927 54.5362 60.46 54.238 59.9463 53.9088C56.9472 51.823 55.0665 48.0826 55.3419 44.413C55.671 40.2985 58.8213 36.7064 62.7137 35.4933Z" fill="white"/>
<path d="M5.91231 81.8641C7.70148 81.459 9.55285 81.4132 11.3597 81.7293C11.9307 82.1269 11.5646 82.9222 11.6956 83.495C10.8862 83.4344 10.0802 83.3569 9.27078 83.303C9.5193 83.896 9.94247 84.4723 9.80813 85.1563C9.29428 88.4418 8.35727 91.7071 8.50505 95.0667L7.42362 95.6362C6.88962 91.5925 7.60162 87.5219 7.97776 83.5051C6.86947 83.7612 5.77797 84.0746 4.67303 84.3442C4.9585 83.5051 4.76036 82.0764 5.91231 81.8641Z" fill="white"/>
<path d="M12.6795 87.4174C12.5922 86.0695 13.9255 84.6913 15.2991 84.8935C15.1345 85.7258 15.0774 86.7536 14.2915 87.2523C13.8449 87.6769 13.2101 87.4241 12.6795 87.4174Z" fill="white"/>
<path d="M30.4424 88.3643C30.9394 87.6465 32.1585 86.858 32.7563 87.9094C33.428 89.7189 31.4499 90.9421 30.6069 92.29C30.9831 93.5099 32.4071 92.8831 33.1829 92.4518C33.2937 92.6876 33.5187 93.1594 33.6195 93.3953C32.7261 94.14 31.6044 94.9285 30.3785 94.6151C29.6598 94.4365 29.4818 93.6042 29.1124 93.0549C28.5247 93.52 27.853 94.2276 27.0302 93.8266C26.3585 93.3111 25.8513 92.6034 25.1427 92.1418C24.0176 92.9101 23.356 94.1636 22.3216 95.0229C22.2075 95.1374 22.0562 95.2069 21.8952 95.2187C21.7342 95.2304 21.5744 95.1837 21.445 95.0869C21.6365 93.739 22.1637 92.472 22.2108 91.1072C20.6356 92.0474 19.8027 93.803 18.3384 94.8476L17.5727 94.9184C17.7675 93.7895 18.1571 92.7079 18.3653 91.5824C17.1092 92.6506 16.179 94.1602 14.6072 94.8106C14.1034 94.9016 13.6433 94.6219 13.1765 94.4972C12.8742 93.8008 12.5384 93.1268 12.1689 92.4754L11.0607 93.4526C10.9767 93.028 10.4763 92.4888 10.98 92.1451C11.6597 91.3714 12.4171 90.6702 13.2403 90.0525C14.4292 90.6793 14.1471 92.2429 14.5837 93.3346C15.9573 93.1122 16.6223 91.7778 17.5626 90.9118C18.3552 90.1974 18.9799 89.1865 20.0681 88.89C20.901 89.5976 20.1722 90.7096 20.1755 91.5858C21.2502 90.6018 22.0529 89.2775 23.3795 88.5968C23.9471 88.4115 24.2729 89.0551 24.1889 89.5437C24.1206 90.3677 23.9606 91.1815 23.712 91.9699C24.4676 91.296 25.1964 90.285 26.3047 90.285C27.0469 90.959 27.4332 91.9025 28.0511 92.6775C29.4516 91.5925 29.1326 89.5235 30.4424 88.3643ZM30.4424 90.9421C30.9428 90.4569 31.4499 89.9076 31.4734 89.1663C30.9792 89.6541 30.6273 90.2682 30.4558 90.9421H30.4424Z" fill="white"/>
<path d="M33.2567 30.2635L33.3104 30.4488L33.4347 30.8532C35.6379 30.7521 37.8433 30.7364 40.0509 30.806L39.8763 30.3578L42.2574 30.3814L42.2373 30.8094C50.3312 30.7285 58.4251 30.7757 66.519 30.7858C66.4484 32.2145 66.2906 33.6366 66.1395 35.0586C64.9831 35.056 63.8314 35.2055 62.7138 35.5034C62.6802 34.9238 62.6433 34.3442 62.6097 33.768C45.2666 33.768 27.9246 33.768 10.5837 33.768C10.8557 39.3954 11.9271 44.942 13.0253 50.4582C11.7341 47.5421 10.6784 44.5266 9.86835 41.4409C8.94477 37.9633 8.2227 34.3846 8.31002 30.7723C16.6424 30.7723 24.9781 30.7218 33.3104 30.806L33.2567 30.2635Z" fill="#E19517"/>
<path d="M62.0557 39.6448C63.1233 38.81 64.4036 38.2938 65.7501 38.1554C65.0894 42.8626 64.039 47.5064 62.6099 52.0387L62.8248 52.4565L62.6737 52.3959C61.9433 52.0077 61.2707 51.5189 60.6754 50.9435C61.3335 48.0115 61.8279 45.0449 62.1565 42.0575C62.2136 41.296 62.4722 40.4738 62.1565 39.7425L62.0557 39.6448Z" fill="#E19517"/>
<path d="M59.9296 53.9257C60.4433 54.2549 60.976 54.553 61.5249 54.8187C60.9674 56.3924 60.2689 57.9121 59.5972 59.442C59.1169 59.3173 58.64 59.1825 58.1631 59.0477C58.734 57.3292 59.352 55.6308 59.9296 53.9257Z" fill="#E19517"/>
<path d="M11.6789 58.2626C16.186 55.6544 21.5998 55.3511 26.6745 55.7926C35.964 56.7698 44.6926 60.3013 53.5691 62.997C58.5396 64.4763 63.7922 65.6928 68.9878 64.8032C72.1814 64.3708 75.1835 63.0256 77.6358 60.928C75.6347 63.4256 72.8408 65.1596 69.7199 65.8411C66.8399 66.4972 63.8679 66.6443 60.9375 66.2758C51.8395 65.4401 43.2922 62.003 34.5669 59.5363C28.8575 58.0301 22.6813 57.4033 16.9349 59.0949C13.9358 59.9778 10.977 61.7704 9.6269 64.7156C8.54883 67.1755 8.13574 70.0398 8.95521 72.6378C9.72094 75.1988 11.8939 77.3959 14.5706 77.8373C17.7639 78.0945 20.9333 77.1073 23.4201 75.0809C23.1985 72.2267 23.6485 69.1198 25.6535 66.9396C26.1002 66.3735 26.7954 66.141 27.4536 65.9287C28.4948 69.0929 26.6745 72.3716 24.8542 74.8854C25.3815 75.6739 25.8852 76.5703 26.7819 76.9881C29.1329 78.2888 32.3066 77.2105 33.697 74.9663C34.315 74.0565 34.4661 72.9445 34.6475 71.883C32.8171 71.0372 31.0271 69.6893 30.3755 67.6675C30.0397 66.9261 30.3251 66.1376 30.5199 65.403C31.4804 65.3221 32.535 65.3255 33.2067 66.141C34.7482 67.5394 35.3057 69.6388 35.6114 71.6269C36.4375 71.728 37.2693 71.801 38.1067 71.8459C38.9497 69.076 40.0277 66.2994 41.8346 64.008C42.2477 63.5901 42.8421 62.8926 43.4836 63.2194C44.4911 64.3045 44.3904 65.9556 44.3098 67.3372C44.0042 69.9757 41.7641 71.8897 39.3594 72.658C38.4072 76.0783 37.9458 79.6173 37.9892 83.1682C38.0563 86.5379 37.7272 89.9919 38.6608 93.2774C38.8653 93.8846 39.2106 94.4344 39.6684 94.8814C40.958 92.5428 40.9815 89.7965 41.1427 87.2018C41.122 83.5083 40.6803 79.8294 39.8262 76.2367C42.251 76.0513 44.696 75.6402 46.879 74.5518C47.46 71.5191 48.434 68.3785 50.7345 66.2151C51.2383 65.7838 52.1484 65.066 52.6287 65.9152C53.1358 68.2134 52.6892 70.835 51.1409 72.6547C50.2912 73.733 49.099 74.444 47.9302 75.1179C47.522 78.121 47.3167 81.1483 47.3156 84.1791C47.3156 87.623 47.1913 91.1545 48.2291 94.4837C49.3105 93.8098 49.3609 92.4181 49.6867 91.3027C50.8905 86.1099 50.8364 80.7033 49.5288 75.5358C51.0119 75.6885 52.507 75.6829 53.9889 75.5189C54.3288 73.8832 55.0719 72.3591 56.1503 71.0859C57.2286 69.8126 58.6078 68.8308 60.1617 68.2302C61.1391 67.9337 62.4791 67.9236 63.0802 68.9042C63.4161 69.7297 63.1172 70.6665 62.6134 71.354C60.9678 73.7128 58.365 75.2123 55.6379 75.9469C56.1316 77.069 56.7462 78.2349 57.9116 78.7808C60.0576 80.031 62.7175 79.4346 64.6856 78.1069C63.987 75.0303 64.9879 71.7213 66.9962 69.3456C67.7687 68.5133 68.7493 67.5866 69.9785 67.7248C70.7879 67.7248 71.2682 68.6076 71.2346 69.3389C71.2346 71.2967 70.2539 73.0691 69.3069 74.7136C68.5915 75.9806 67.4731 76.9376 66.6201 78.1102C67.7922 79.6435 69.8408 80.0748 71.6578 80.1557C74.855 80.1557 77.787 78.518 80.2017 76.5332C81.6458 75.3808 82.7978 73.9284 84.1446 72.6715C81.9313 76.1187 79.0632 79.3065 75.3185 81.0958C72.9676 82.1809 70.1565 82.7335 67.6679 81.7698C66.4824 81.3115 65.7267 80.2332 65.0315 79.229C63.1239 80.5061 60.9107 81.5238 58.5698 81.4159C57.9581 81.423 57.352 81.2979 56.7928 81.049C56.2336 80.8001 55.7343 80.4334 55.3289 79.9737C54.3852 78.9628 54.2206 77.5205 53.9855 76.2165C52.8101 76.2659 51.6357 76.2659 50.4625 76.2165C52.2358 81.416 52.1955 87.0434 51.47 92.4316C51.1342 94.5444 50.7345 96.6808 49.8378 98.6353C49.5188 99.2755 49.0587 100.142 48.1989 99.9831C47.4432 99.5855 47.1746 98.7094 46.916 97.9613C45.8077 94.2546 45.4953 90.3828 45.5726 86.5413C45.5881 82.8851 45.94 79.2382 46.6238 75.647C44.6822 76.3127 42.6687 76.7449 40.6255 76.9342C41.7027 80.1438 42.3796 83.4748 42.6406 86.8513C42.8018 90.221 42.8791 93.6784 41.7876 96.9066C41.4316 97.9478 40.8707 99.0565 39.8162 99.5249C39.309 99.6158 38.9295 99.1879 38.6037 98.888C37.529 97.6681 37.1966 96.0136 36.7902 94.4871C35.0774 87.2826 36.1353 79.7985 37.8783 72.7221C37.1596 72.5974 36.4409 72.4559 35.7188 72.3548C35.5677 74.3294 35.2386 76.3984 33.959 77.9889C32.6324 79.7917 30.2848 81.0015 28.0447 80.3477C25.9323 79.9097 24.4042 78.1473 23.6619 76.1962C21.3345 78.4641 18.1977 80.0445 14.903 79.9838C12.7536 79.9198 10.5169 79.2324 8.99215 77.6486C5.93931 74.7338 4.80414 70.1004 5.76467 66.0331C6.50689 62.7409 8.78729 59.9171 11.6789 58.2626ZM39.8128 71.4247C41.9891 70.3868 43.5642 67.59 42.5231 65.2581C40.8976 66.8992 40.3871 69.2613 39.8128 71.4247ZM32.1186 67.2564C32.1186 68.9985 33.1698 70.498 34.6273 71.3708C34.6374 69.6893 33.8952 67.7248 32.1186 67.2564ZM25.3378 68.6784C24.3 70.1644 24.3706 72.0784 24.6057 73.797C25.8416 72.1121 26.7618 70.0903 26.5704 67.9337C26.117 68.1291 25.5695 68.1999 25.3378 68.6784ZM50.4659 68.1561C49.1561 69.7399 48.5213 71.7347 48.2291 73.7465C50.0158 72.4693 51.5036 70.5183 51.4197 68.2167L50.4659 68.1561ZM55.5942 75.0809C57.6093 74.4575 59.6613 73.1433 60.3968 71.0641C60.7831 70.2554 60.0375 69.632 59.265 69.9589C57.1324 70.6733 55.8293 72.9108 55.5942 75.0809ZM67.7418 70.4509C66.8494 71.2708 66.2064 72.3274 65.8873 73.4986C65.5681 74.6697 65.5858 75.9075 65.9383 77.069C67.7452 75.2291 69.5822 72.867 69.1792 70.1105C68.6956 70.1779 68.1247 70.0701 67.7418 70.4441V70.4509Z" fill="#E19517"/>
<path d="M12.4748 63.4856C14.1809 61.8243 16.562 60.7898 18.9667 61.0156C20.6459 61.0695 22.5468 62.1883 22.8625 63.9574C22.8928 65.3052 21.5829 66.0971 20.3504 65.9354C19.6216 65.0593 18.7753 64.1663 17.6132 63.9304C15.5982 63.5126 13.5025 64.4291 12.1893 65.9522C11.1818 67.0339 10.8459 68.5065 10.1239 69.7567C10.0813 68.6071 10.2673 67.4606 10.6709 66.384C11.0746 65.3073 11.6878 64.322 12.4748 63.4856Z" fill="#E19517"/>
</g>
<defs>
<clipPath id="clip0_243_496">
<rect width="85.567" height="100" fill="white"/>
</clipPath>
</defs>
</svg>
