<svg width="66" height="67" viewBox="0 0 66 67" fill="none" xmlns="http://www.w3.org/2000/svg">
<g clip-path="url(#clip0_196_157)">
<path d="M43.7525 37.0541L51.0015 25.9826L49.753 24.8661L39.6522 33.3884C37.796 33.0089 35.7967 33.5754 34.4437 35.0879C32.4198 37.3511 32.615 40.8299 34.881 42.8539C37.147 44.8779 40.623 44.6826 42.647 42.4166C44 40.9041 44.3382 38.8554 43.7525 37.0541ZM33 7.77764V0.369141H44V7.77764C40.0428 7.10939 36.872 7.12314 33 7.77764ZM57.3402 13.4536L61.2095 9.58439L65.098 13.4729L61.4652 17.1056C60.1947 15.7746 58.8143 14.5564 57.3402 13.4536ZM5.5 25.1191H27.5V30.6191H5.5V25.1191ZM0 36.1191H22V41.6191H0V36.1191ZM8.25 47.1191H27.5V52.6191H8.25V47.1191ZM66 38.8691C66 54.0574 53.6882 66.3691 38.5 66.3691C30.8275 66.3691 23.925 63.1929 18.9447 58.1191H27.9647C31.0942 59.8544 34.672 60.8691 38.5 60.8691C50.6302 60.8691 60.5 50.9994 60.5 38.8691C60.5 26.7389 50.6302 16.8691 38.5 16.8691C34.672 16.8691 31.0942 17.8839 27.9647 19.6191H18.9447C23.925 14.5454 30.8275 11.3691 38.5 11.3691C53.6882 11.3691 66 23.6809 66 38.8691Z" fill="#E19517"/>
</g>
<defs>
<clipPath id="clip0_196_157">
<rect width="66" height="66" fill="white" transform="translate(0 0.369141)"/>
</clipPath>
</defs>
</svg>
