<svg width="166" height="164" viewBox="0 0 166 164" fill="none" xmlns="http://www.w3.org/2000/svg">
<path d="M69.8602 11.9827C72.7763 -2.32679 93.2237 -2.32679 96.1398 11.9827C98.2875 22.522 110.806 27.0785 119.226 20.3855C130.658 11.2982 146.322 24.4415 139.357 37.2777C134.228 46.7317 140.889 58.2692 151.641 58.5542C166.24 58.9411 169.791 79.0779 156.205 84.4345C146.199 88.3797 143.885 101.5 151.939 108.629C162.873 118.309 152.649 136.017 138.799 131.388C128.598 127.978 118.392 136.542 119.979 147.18C122.133 161.624 102.918 168.617 95.284 156.168C89.6612 146.999 76.3388 146.999 70.716 156.168C63.0816 168.617 43.8673 161.624 46.0213 147.18C47.6077 136.542 37.4022 127.978 27.2011 131.388C13.3507 136.017 3.12695 118.309 14.0613 108.629C22.1147 101.5 19.8013 88.3797 9.79516 84.4345C-3.79062 79.0779 -0.239967 58.9411 14.3585 58.5542C25.1106 58.2692 31.7718 46.7317 26.6425 37.2777C19.6784 24.4415 35.342 11.2982 46.7739 20.3855C55.1936 27.0785 67.7125 22.522 69.8602 11.9827Z" stroke="#E19517"/>
</svg>
