<svg width="142" height="141" viewBox="0 0 142 141" fill="none" xmlns="http://www.w3.org/2000/svg">
<path d="M59.2333 9.74064C61.8447 -3.07353 80.1553 -3.07354 82.7666 9.74063C84.5565 18.5235 94.9891 22.3207 102.006 16.7431C112.243 8.60541 126.27 20.3753 120.033 31.87C115.759 39.7486 121.31 49.3634 130.27 49.6009C143.343 49.9474 146.523 67.9799 134.357 72.7767C126.018 76.0644 124.09 86.998 130.802 92.9395C140.593 101.608 131.438 117.465 119.035 113.32C110.534 110.478 102.029 117.615 103.351 126.48C105.28 139.415 88.0735 145.677 81.2369 134.529C76.5511 126.888 65.4489 126.888 60.7631 134.529C53.9265 145.677 36.7201 139.415 38.649 126.48C39.9711 117.615 31.4663 110.478 22.9651 113.32C10.5621 117.466 1.40675 101.608 11.1985 92.9395C17.9098 86.998 15.9819 76.0644 7.64324 72.7767C-4.52281 67.9799 -1.34319 49.9474 11.7298 49.6009C20.69 49.3634 26.2411 39.7486 21.9667 31.87C15.7303 20.3753 29.757 8.60541 39.9942 16.7431C47.0108 22.3207 57.4435 18.5235 59.2333 9.74064Z" fill="#E19517"/>
</svg>
